<svg width="24" height="24" viewBox="0 0 24 24" fill="none" xmlns="http://www.w3.org/2000/svg">
<g clip-path="url(#clip0_220_2754)">
<path d="M15.75 17.6953L19.7227 13.7227L20.7773 14.7773L15.75 19.8047L12.9727 17.0273L14.0273 15.9727L15.75 17.6953ZM24 9V24H9V14.8477C8.52344 14.9492 8.02344 15 7.5 15C6.46094 15 5.48828 14.8047 4.58203 14.4141C3.67578 14.0234 2.87891 13.4883 2.19141 12.8086C1.50391 12.1289 0.96875 11.3359 0.585938 10.4297C0.203125 9.52344 0.0078125 8.54688 0 7.5C0 6.46094 0.195313 5.48828 0.585938 4.58203C0.976562 3.67578 1.51172 2.87891 2.19141 2.19141C2.87109 1.50391 3.66406 0.96875 4.57031 0.585938C5.47656 0.203125 6.45312 0.0078125 7.5 0C8.53906 0 9.51172 0.195313 10.418 0.585938C11.3242 0.976562 12.1211 1.51172 12.8086 2.19141C13.4961 2.87109 14.0312 3.66406 14.4141 4.57031C14.7969 5.47656 14.9922 6.45312 15 7.5C15 8.02344 14.9492 8.52344 14.8477 9H24ZM1.5 7.5C1.5 8.32812 1.65625 9.10547 1.96875 9.83203C2.28125 10.5586 2.71094 11.1914 3.25781 11.7305C3.80469 12.2695 4.44141 12.6992 5.16797 13.0195C5.89453 13.3398 6.67188 13.5 7.5 13.5C8.32812 13.5 9.10547 13.3438 9.83203 13.0312C10.5586 12.7188 11.1914 12.2891 11.7305 11.7422C12.2695 11.1953 12.6992 10.5586 13.0195 9.83203C13.3398 9.10547 13.5 8.32812 13.5 7.5C13.5 6.67188 13.3438 5.89453 13.0312 5.16797C12.7188 4.44141 12.2891 3.80859 11.7422 3.26953C11.1953 2.73047 10.5586 2.30078 9.83203 1.98047C9.10547 1.66016 8.32812 1.5 7.5 1.5C6.67188 1.5 5.89453 1.65625 5.16797 1.96875C4.44141 2.28125 3.80859 2.71094 3.26953 3.25781C2.73047 3.80469 2.30078 4.44141 1.98047 5.16797C1.66016 5.89453 1.5 6.67188 1.5 7.5ZM22.5 10.5H14.3789C13.9805 11.3828 13.457 12.1484 12.8086 12.7969C12.1602 13.4453 11.3906 13.9727 10.5 14.3789V22.5H22.5V10.5ZM11.7773 5.77734L6.75 10.8047L3.97266 8.02734L5.02734 6.97266L6.75 8.69531L10.7227 4.72266L11.7773 5.77734Z" fill="#B1B1B1"/>
</g>
<defs>
<clipPath id="clip0_220_2754">
<rect width="24" height="24" fill="white"/>
</clipPath>
</defs>
</svg>
