<svg width="25" height="25" viewBox="0 0 25 25" fill="none" xmlns="http://www.w3.org/2000/svg">
<path d="M12.7917 11.3266C12.0106 11.3184 11.2494 11.0793 10.604 10.6393C9.95856 10.1994 9.4577 9.57839 9.16449 8.85441C8.87127 8.13044 8.7988 7.33589 8.95621 6.57081C9.11361 5.80574 9.49386 5.10433 10.0491 4.55491C10.6043 4.00549 11.3096 3.63261 12.0763 3.48322C12.843 3.33384 13.6367 3.41462 14.3576 3.7154C15.0785 4.01619 15.6942 4.52352 16.1274 5.17353C16.5605 5.82354 16.7916 6.58717 16.7917 7.36827C16.7843 8.42304 16.3592 9.4319 15.6095 10.1738C14.8597 10.9158 13.8465 11.3303 12.7917 11.3266ZM12.7917 4.79883C12.2853 4.80704 11.7927 4.96469 11.3757 5.25197C10.9587 5.53925 10.6358 5.94335 10.4477 6.41352C10.2596 6.88369 10.2146 7.39895 10.3184 7.8946C10.4222 8.39025 10.6702 8.84417 11.0311 9.19936C11.3921 9.55455 11.8499 9.79516 12.3472 9.89097C12.8444 9.98678 13.3589 9.93352 13.826 9.73788C14.2931 9.54224 14.6919 9.21295 14.9725 8.79135C15.253 8.36976 15.4027 7.87467 15.4028 7.36827C15.3954 6.68186 15.1167 6.02626 14.6274 5.54479C14.1381 5.06331 13.4781 4.79512 12.7917 4.79883Z" fill="#2D60FF"/>
<path d="M12.7916 11.3266C12.0105 11.3184 11.2494 11.0793 10.6039 10.6393C9.95848 10.1994 9.45762 9.57839 9.1644 8.85441C8.87119 8.13044 8.79872 7.33589 8.95612 6.57081C9.11353 5.80574 9.49377 5.10433 10.049 4.55491C10.6042 4.00549 11.3095 3.63261 12.0762 3.48322C12.8429 3.33384 13.6366 3.41462 14.3575 3.7154C15.0784 4.01619 15.6941 4.52352 16.1273 5.17353C16.5604 5.82354 16.7915 6.58717 16.7916 7.36827C16.7842 8.42304 16.3591 9.4319 15.6094 10.1738C14.8596 10.9158 13.8464 11.3303 12.7916 11.3266ZM12.7916 4.79883C12.2853 4.80704 11.7926 4.96469 11.3756 5.25197C10.9586 5.53925 10.6357 5.94335 10.4476 6.41352C10.2595 6.88369 10.2146 7.39895 10.3184 7.8946C10.4222 8.39025 10.6701 8.84417 11.0311 9.19936C11.392 9.55455 11.8499 9.79516 12.3471 9.89097C12.8444 9.98678 13.3588 9.93352 13.8259 9.73788C14.293 9.54224 14.6919 9.21295 14.9724 8.79135C15.2529 8.36976 15.4026 7.87467 15.4027 7.36827C15.3954 6.68186 15.1166 6.02626 14.6273 5.54479C14.138 5.06331 13.478 4.79512 12.7916 4.79883ZM15.2152 12.2572C12.135 11.7212 8.96406 12.209 6.18742 13.646C5.99032 13.7555 5.82711 13.917 5.71565 14.113C5.6042 14.309 5.54878 14.5318 5.55547 14.7572V17.2294C5.55547 17.4136 5.62864 17.5902 5.75887 17.7204C5.88911 17.8507 6.06574 17.9238 6.24992 17.9238C6.4341 17.9238 6.61073 17.8507 6.74096 17.7204C6.8712 17.5902 6.94436 17.4136 6.94436 17.2294V14.8474C9.51913 13.5555 12.4471 13.1456 15.2777 13.6808L15.2152 12.2572Z" fill="#2D60FF"/>
<path d="M22.9166 15.2779H18.2639V14.2501C18.2639 14.0659 18.1907 13.8893 18.0605 13.7591C17.9302 13.6288 17.7536 13.5557 17.5694 13.5557C17.3852 13.5557 17.2086 13.6288 17.0784 13.7591C16.9481 13.8893 16.875 14.0659 16.875 14.2501V15.2779H11.8055C11.6214 15.2779 11.4447 15.3511 11.3145 15.4813C11.1842 15.6115 11.1111 15.7882 11.1111 15.9723V22.9168C11.1111 23.101 11.1842 23.2776 11.3145 23.4078C11.4447 23.5381 11.6214 23.6112 11.8055 23.6112H22.9166C23.1008 23.6112 23.2775 23.5381 23.4077 23.4078C23.5379 23.2776 23.6111 23.101 23.6111 22.9168V15.9723C23.6111 15.7882 23.5379 15.6115 23.4077 15.4813C23.2775 15.3511 23.1008 15.2779 22.9166 15.2779ZM22.2222 22.2223H12.5V16.6668H16.875V16.9515C16.875 17.1357 16.9481 17.3123 17.0784 17.4425C17.2086 17.5728 17.3852 17.6459 17.5694 17.6459C17.7536 17.6459 17.9302 17.5728 18.0605 17.4425C18.1907 17.3123 18.2639 17.1357 18.2639 16.9515V16.6668H22.2222V22.2223Z" fill="#2D60FF"/>
<path d="M15.1459 19.0414H19.2847V20.0136H15.1459V19.0414ZM7.52781 8.4997C5.6052 8.53187 3.71593 9.00716 2.00697 9.88859C1.82111 9.98676 1.66543 10.1336 1.55657 10.3134C1.4477 10.4932 1.38975 10.6992 1.38892 10.9094V13.0622C1.38892 13.2464 1.46208 13.423 1.59231 13.5532C1.72255 13.6835 1.89918 13.7566 2.08336 13.7566C2.26754 13.7566 2.44417 13.6835 2.57441 13.5532C2.70464 13.423 2.7778 13.2464 2.7778 13.0622V11.0483C4.41065 10.2356 6.21847 9.83726 8.04169 9.88859C7.80315 9.45336 7.63 8.98538 7.52781 8.4997ZM22.9931 9.88165C21.4604 9.07763 19.7758 8.60445 18.0486 8.49276C17.9469 8.97758 17.7762 9.4453 17.5417 9.88165C19.1688 9.92059 20.7672 10.319 22.2222 11.0483V13.0622C22.2222 13.2464 22.2954 13.423 22.4256 13.5532C22.5559 13.6835 22.7325 13.7566 22.9167 13.7566C23.1009 13.7566 23.2775 13.6835 23.4077 13.5532C23.538 13.423 23.6111 13.2464 23.6111 13.0622V10.9094C23.6116 10.6981 23.5542 10.4906 23.4453 10.3094C23.3363 10.1283 23.18 9.98037 22.9931 9.88165ZM7.4028 7.36776V6.90248C6.85879 6.82968 6.36381 6.54987 6.02091 6.1213C5.67801 5.69273 5.51361 5.14842 5.56193 4.60169C5.61025 4.05495 5.86757 3.54792 6.28032 3.18613C6.69307 2.82434 7.22945 2.63568 7.7778 2.65942C8.34816 2.65839 8.89637 2.88017 9.30558 3.27748C9.66662 2.97969 10.0632 2.72777 10.4861 2.52748C10.0136 1.98419 9.38762 1.59681 8.69057 1.41642C7.99352 1.23602 7.25817 1.27107 6.58145 1.51695C5.90472 1.76283 5.31837 2.20799 4.8997 2.79377C4.48103 3.37954 4.24968 4.07843 4.23614 4.79831C4.25071 5.67939 4.59322 6.5234 5.19676 7.16546C5.80031 7.80753 6.62153 8.20154 7.50003 8.27054C7.44112 7.97306 7.40858 7.67096 7.4028 7.36776ZM17.2014 1.27054C16.7242 1.27064 16.2518 1.36589 15.8118 1.55071C15.3718 1.73552 14.9731 2.00621 14.6389 2.34692C15.1084 2.51704 15.5523 2.7507 15.9584 3.04137C16.2826 2.81632 16.6618 2.68348 17.0555 2.657C17.4493 2.63052 17.8429 2.71141 18.1943 2.89104C18.5457 3.07066 18.8418 3.34229 19.0509 3.67696C19.2601 4.01162 19.3745 4.39678 19.382 4.79137C19.3776 5.19667 19.2585 5.59245 19.0385 5.93288C18.8186 6.27331 18.5066 6.54448 18.1389 6.71498C18.1669 6.92912 18.1808 7.14486 18.1806 7.36081C18.1787 7.63996 18.1555 7.91855 18.1111 8.19415C18.8677 7.99966 19.5387 7.56052 20.0197 6.94509C20.5007 6.32966 20.7648 5.57247 20.7709 4.79137C20.7617 3.852 20.3811 2.95443 19.7123 2.29473C19.0435 1.63503 18.1408 1.26682 17.2014 1.27054Z" fill="#2D60FF"/>
</svg>
