<svg width="18" height="19" viewBox="0 0 18 19" fill="none" xmlns="http://www.w3.org/2000/svg">
<path d="M17.6797 3.24989C17.6796 2.69558 17.5222 2.15267 17.2259 1.68422C16.9295 1.21577 16.5064 0.841013 16.0055 0.603462C15.5047 0.365912 14.9467 0.275321 14.3965 0.342212C13.8462 0.409103 13.3262 0.63073 12.8969 0.981353C12.4675 1.33198 12.1465 1.79721 11.971 2.32301C11.7955 2.84881 11.7728 3.41361 11.9055 3.95181C12.0382 4.49001 12.3209 4.97952 12.7206 5.36349C13.1204 5.74745 13.621 6.01012 14.1641 6.12099V7.15614C14.1641 7.62234 13.9789 8.06945 13.6492 8.3991C13.3196 8.72876 12.8725 8.91395 12.4063 8.91395H5.37501C4.7409 8.91268 4.12371 9.11841 3.61719 9.49989V6.12099C4.32855 5.97578 4.96065 5.57162 5.39094 4.98685C5.82124 4.40208 6.01908 3.67838 5.94611 2.95603C5.87314 2.23368 5.53455 1.56417 4.99599 1.07727C4.45744 0.590381 3.75728 0.320802 3.03126 0.320802C2.30523 0.320802 1.60507 0.590381 1.06652 1.07727C0.527962 1.56417 0.189376 2.23368 0.116405 2.95603C0.0434329 3.67838 0.241273 4.40208 0.67157 4.98685C1.10187 5.57162 1.73397 5.97578 2.44532 6.12099V12.8788C1.73397 13.024 1.10187 13.4282 0.67157 14.0129C0.241273 14.5977 0.0434329 15.3214 0.116405 16.0438C0.189376 16.7661 0.527962 17.4356 1.06652 17.9225C1.60507 18.4094 2.30523 18.679 3.03126 18.679C3.75728 18.679 4.45744 18.4094 4.99599 17.9225C5.53455 17.4356 5.87314 16.7661 5.94611 16.0438C6.01908 15.3214 5.82124 14.5977 5.39094 14.0129C4.96065 13.4282 4.32855 13.024 3.61719 12.8788V11.8436C3.61719 11.3774 3.80239 10.9303 4.13205 10.6007C4.4617 10.271 4.90881 10.0858 5.37501 10.0858H12.4063C13.1833 10.0858 13.9284 9.77717 14.4779 9.22774C15.0273 8.67832 15.3359 7.93314 15.3359 7.15614V6.12099C15.9973 5.98506 16.5915 5.62526 17.0184 5.10226C17.4454 4.57925 17.6789 3.92503 17.6797 3.24989ZM1.27344 3.24989C1.27344 2.90223 1.37654 2.56237 1.56969 2.2733C1.76284 1.98423 2.03737 1.75893 2.35857 1.62588C2.67977 1.49284 3.03321 1.45803 3.37419 1.52586C3.71517 1.59368 4.02838 1.7611 4.27422 2.00693C4.52005 2.25277 4.68747 2.56598 4.75529 2.90696C4.82312 3.24794 4.78831 3.60138 4.65526 3.92258C4.52222 4.24378 4.29692 4.51831 4.00784 4.71146C3.71877 4.90461 3.37892 5.0077 3.03126 5.0077C2.56506 5.0077 2.11795 4.82251 1.7883 4.49285C1.45864 4.1632 1.27344 3.71609 1.27344 3.24989ZM4.78907 15.7499C4.78907 16.0976 4.68598 16.4374 4.49282 16.7265C4.29967 17.0156 4.02514 17.2409 3.70394 17.3739C3.38274 17.5069 3.02931 17.5418 2.68832 17.4739C2.34734 17.4061 2.03413 17.2387 1.7883 16.9929C1.54246 16.747 1.37505 16.4338 1.30722 16.0928C1.23939 15.7518 1.2742 15.3984 1.40725 15.0772C1.54029 14.756 1.7656 14.4815 2.05467 14.2883C2.34374 14.0952 2.68359 13.9921 3.03126 13.9921C3.49746 13.9921 3.94456 14.1773 4.27422 14.5069C4.60387 14.8366 4.78907 15.2837 4.78907 15.7499ZM14.75 5.0077C14.4023 5.0077 14.0625 4.90461 13.7734 4.71146C13.4843 4.51831 13.259 4.24378 13.126 3.92258C12.993 3.60138 12.9581 3.24794 13.026 2.90696C13.0938 2.56598 13.2612 2.25277 13.507 2.00693C13.7529 1.7611 14.0661 1.59368 14.4071 1.52586C14.7481 1.45803 15.1015 1.49284 15.4227 1.62588C15.7439 1.75893 16.0184 1.98423 16.2116 2.2733C16.4047 2.56237 16.5078 2.90223 16.5078 3.24989C16.5078 3.71609 16.3226 4.1632 15.993 4.49285C15.6633 4.82251 15.2162 5.0077 14.75 5.0077Z" fill="#2D60FF"/>
</svg>
