<svg width="24" height="24" viewBox="0 0 25 25" fill="none" xmlns="http://www.w3.org/2000/svg">
<path d="M2.39159 10.1391C2.35481 9.986 2.35324 9.82652 2.38699 9.67268C2.42075 9.51885 2.48894 9.37467 2.58645 9.25099C2.68396 9.12731 2.80824 9.02735 2.94995 8.95863C3.09167 8.88992 3.24711 8.85423 3.40461 8.85425H21.5952C21.7527 8.85423 21.9082 8.88992 22.0499 8.95863C22.1916 9.02735 22.3159 9.12731 22.4134 9.25099C22.5109 9.37467 22.5791 9.51885 22.6128 9.67268C22.6466 9.82652 22.645 9.986 22.6083 10.1391L19.9833 21.0766C19.9286 21.3042 19.799 21.5067 19.6152 21.6515C19.4314 21.7964 19.2042 21.8751 18.9702 21.8751H6.02961C5.79561 21.8751 5.56843 21.7964 5.38465 21.6515C5.20088 21.5067 5.07123 21.3042 5.01659 21.0766L2.39159 10.1391Z" stroke="#2D60FF" stroke-width="2" stroke-linecap="round" stroke-linejoin="round"/>
<path d="M9.89567 8.85421V3.64587H5.729V8.85421H9.89567ZM9.89567 8.85421L13.2811 4.16671L19.7915 8.85421" stroke="#2D60FF" stroke-width="3" stroke-linecap="round" stroke-linejoin="round"/>
<path d="M7.8125 13.0209H11.9792" stroke="#2D60FF" stroke-width="3" stroke-linecap="round"/>
</svg>
