<svg width="24" height="24" viewBox="0 0 24 24" fill="none" xmlns="http://www.w3.org/2000/svg">
<path d="M10.8 5.5L10.4 3M10.8 5.5C9.45844 5.81119 8.29065 6.63238 7.54402 7.78966C6.79739 8.94694 6.53056 10.3494 6.80005 11.7L7.10005 13.5C7.50005 15.8 5.80005 16.7 6.00005 17.9C6.10005 18.5 6.30005 19 6.80005 19L19.5 16.5C20 16.4 19.9 15.8 19.8 15.2C19.6 14.1 17.6 13.8 17.2 11.5L16.8 9.7C16.5552 8.34388 15.7918 7.13645 14.6717 6.33371C13.5516 5.53098 12.1629 5.19607 10.8 5.4V5.5ZM3.80005 9.8C3.89149 7.98706 4.59677 6.25913 5.80005 4.9M8.50005 18.6C8.78997 19.3089 9.30445 19.9032 9.96459 20.2917C10.6247 20.6801 11.394 20.8413 12.1546 20.7505C12.9151 20.6597 13.6249 20.3219 14.175 19.7889C14.7251 19.256 15.0852 18.5573 15.2 17.8L15.3 17.3L8.50005 18.6Z" stroke="#0070F0" stroke-width="2" stroke-linecap="round" stroke-linejoin="round"/>
</svg>
