<svg aria-hidden="true" style="position: absolute; width: 0; height: 0; overflow: hidden;" version="1.1"
    xmlns="http://www.w3.org/2000/svg" xmlns:xlink="http://www.w3.org/1999/xlink">
    <defs>
        <symbol width="24px" height="24px" viewBox="0 0 48 48" xmlns="http://www.w3.org/2000/svg" id="home">
            <path stroke-width="1"
                d="M 23.951172 4 A 1.50015 1.50015 0 0 0 23.070312 4.3222656 L 8.8730469 15.521484 C 7.0935305 16.919676 6 19.100391 6 21.400391 L 6 40.5 C 6 41.133333 6.2367979 41.80711 6.7148438 42.285156 C 7.1928895 42.763202 7.8666667 43 8.5 43 L 18.5 43 C 19.133333 43 19.80711 42.763202 20.285156 42.285156 C 20.763202 41.80711 21 41.133333 21 40.5 L 21 30.5 C 21 30.218182 21.218182 30 21.5 30 L 26.5 30 C 26.781818 30 27 30.218182 27 30.5 L 27 40.5 C 27 41.133333 27.236798 41.80711 27.714844 42.285156 C 28.19289 42.763202 28.866667 43 29.5 43 L 39.5 43 C 40.133333 43 40.80711 42.763202 41.285156 42.285156 C 41.763202 41.80711 42 41.133333 42 40.5 L 42 21.400391 C 42 19.155946 41.012069 16.901298 39.087891 15.490234 L 24.929688 4.3222656 A 1.50015 1.50015 0 0 0 23.951172 4 z M 24 7.4101562 L 37.271484 17.876953 A 1.50015 1.50015 0 0 0 37.3125 17.910156 C 38.388318 18.699095 39 20.044835 39 21.400391 L 39 40 L 30 40 L 30 30.5 C 30 28.581818 28.418182 27 26.5 27 L 21.5 27 C 19.581818 27 18 28.581818 18 30.5 L 18 40 L 9 40 L 9 21.400391 C 9 20.100391 9.7060794 18.680715 10.726562 17.878906 A 1.50015 1.50015 0 0 0 10.728516 17.876953 L 24 7.4101562 z" />
        </symbol>
        <symbol width="24" height="24" viewBox="0 0 25 25" fill="none" xmlns="http://www.w3.org/2000/svg" id="product">
            <path
                d="M2.39159 10.1391C2.35481 9.986 2.35324 9.82652 2.38699 9.67268C2.42075 9.51885 2.48894 9.37467 2.58645 9.25099C2.68396 9.12731 2.80824 9.02735 2.94995 8.95863C3.09167 8.88992 3.24711 8.85423 3.40461 8.85425H21.5952C21.7527 8.85423 21.9082 8.88992 22.0499 8.95863C22.1916 9.02735 22.3159 9.12731 22.4134 9.25099C22.5109 9.37467 22.5791 9.51885 22.6128 9.67268C22.6466 9.82652 22.645 9.986 22.6083 10.1391L19.9833 21.0766C19.9286 21.3042 19.799 21.5067 19.6152 21.6515C19.4314 21.7964 19.2042 21.8751 18.9702 21.8751H6.02961C5.79561 21.8751 5.56843 21.7964 5.38465 21.6515C5.20088 21.5067 5.07123 21.3042 5.01659 21.0766L2.39159 10.1391Z"
                stroke-width="2" stroke-linecap="round" stroke-linejoin="round" />
            <path d="M9.89567 8.85421V3.64587H5.729V8.85421H9.89567ZM9.89567 8.85421L13.2811 4.16671L19.7915 8.85421"
                stroke-width="3" stroke-linecap="round" stroke-linejoin="round" />
            <path d="M7.8125 13.0209H11.9792" stroke-width="3" stroke-linecap="round" />
        </symbol>
        <symbol width="20" height="20" viewBox="0 0 20 20" fill="none" xmlns="http://www.w3.org/2000/svg"
            id="statistics">
            <path d="M1 1V17C1 17.5304 1.21071 18.0391 1.58579 18.4142C1.96086 18.7893 2.46957 19 3 19H19"
                stroke-width="2" stroke-miterlimit="5.759" stroke-linecap="round" stroke-linejoin="round" />
            <path d="M5 12L9 8L13 12L19 6" stroke-width="2" stroke-miterlimit="5.759" stroke-linecap="round"
                stroke-linejoin="round" />
            <path d="M16 6H19V9" stroke-width="2" stroke-linecap="round" stroke-linejoin="round" />
        </symbol>
        <symbol width="25" height="22" viewBox="0 0 25 22" fill="none" xmlns="http://www.w3.org/2000/svg"
            id="receive-product">
            <path
                d="M2.39159 8.13914C2.35481 7.986 2.35324 7.82652 2.38699 7.67268C2.42075 7.51885 2.48894 7.37467 2.58645 7.25099C2.68396 7.12731 2.80824 7.02735 2.94995 6.95863C3.09167 6.88992 3.24711 6.85423 3.40461 6.85425H21.5952C21.7527 6.85423 21.9082 6.88992 22.0499 6.95863C22.1916 7.02735 22.3159 7.12731 22.4134 7.25099C22.5109 7.37467 22.5791 7.51885 22.6128 7.67268C22.6466 7.82652 22.645 7.986 22.6083 8.13914L19.9833 19.0766C19.9286 19.3042 19.799 19.5067 19.6152 19.6515C19.4314 19.7964 19.2042 19.8751 18.9702 19.8751H6.02961C5.79561 19.8751 5.56843 19.7964 5.38465 19.6515C5.20088 19.5067 5.07123 19.3042 5.01659 19.0766L2.39159 8.13914Z"
                stroke-width="2" stroke-linecap="round" stroke-linejoin="round" />
            <path d="M9.89567 6.85421V1.64587H5.729V6.85421H9.89567ZM9.89567 6.85421L13.2811 2.16671L19.7915 6.85421"
                stroke-width="2" stroke-linecap="round" stroke-linejoin="round" />
            <path d="M7.8125 11.0209H11.9792" stroke-width="2" stroke-linecap="round" />
        </symbol>
        <symbol viewBox="0 0 69 60" fill="none" xmlns="http://www.w3.org/2000/svg" id="upload-img">
            <path
                d="M36.1367 14.7458L36.2289 14.7733L36.2329 14.7688C36.6706 14.8481 37.1047 14.586 37.2333 14.1519C38.405 10.2152 42.0961 7.46504 46.2085 7.46504C46.6954 7.46504 47.0902 7.07016 47.0902 6.5833C47.0902 6.09643 46.6953 5.70156 46.2085 5.70156C41.1543 5.70156 36.9071 9.06665 35.5434 13.6493C35.4042 14.1162 35.6702 14.6067 36.1367 14.7458Z"
                fill="#1814F3" stroke="#F9FFF9" stroke-width="0.3" />
            <path
                d="M56.4524 42.4384H52.0621C51.6581 42.4384 51.3303 42.1107 51.3303 41.7067C51.3303 41.3027 51.658 40.9749 52.0621 40.9749H56.4524C62.5043 40.9749 67.4283 36.0509 67.4283 29.999C67.4283 23.9471 62.5043 19.023 56.4524 19.023H56.3468C56.1346 19.023 55.9329 18.9311 55.7938 18.7706C55.6548 18.6101 55.5921 18.3974 55.6224 18.1873C55.6877 17.7315 55.7207 17.2737 55.7207 16.8279C55.7207 11.5829 51.453 7.31531 46.2081 7.31531C44.1676 7.31531 42.2217 7.95296 40.5805 9.15978C40.2199 9.42478 39.7077 9.30718 39.4991 8.91047C34.8511 0.0596993 22.7109 -1.12887 16.4169 6.57053C13.7654 9.81417 12.7236 14.0336 13.5584 18.146C13.6504 18.6002 13.3029 19.0236 12.8413 19.0236H12.5481C6.49624 19.0236 1.57217 23.9477 1.57217 29.9996C1.57217 36.0514 6.49624 40.9755 12.5481 40.9755H16.9385C17.3425 40.9755 17.6702 41.3032 17.6702 41.7072C17.6702 42.1113 17.3425 42.439 16.9385 42.439H12.5481C5.68914 42.439 0.108643 36.8585 0.108643 29.9995C0.108643 23.3329 5.38019 17.8742 11.9737 17.5731C11.3544 13.3066 12.5387 9.00295 15.2837 5.64437C22.0224 -2.5996 34.9366 -1.67556 40.3958 7.51707C42.1373 6.42522 44.1302 5.85244 46.2079 5.85244C52.5624 5.85244 57.5978 11.261 57.1572 17.58C63.69 17.9463 68.8915 23.3763 68.8915 29.999C68.8915 36.8585 63.311 42.4384 56.4521 42.4384L56.4524 42.4384Z"
                fill="#1814F3" />
            <path
                d="M15.9586 41.2935C15.9586 51.4634 24.2323 59.737 34.4021 59.737C44.5721 59.737 52.8456 51.4633 52.8456 41.2935C52.8456 31.1235 44.5721 22.85 34.4021 22.85C24.2322 22.85 15.9586 31.1237 15.9586 41.2935ZM17.7224 41.2935C17.7224 32.0966 25.2051 24.6138 34.4021 24.6138C43.599 24.6138 51.0818 32.0964 51.0818 41.2935C51.0818 50.4904 43.599 57.9732 34.4021 57.9732C25.2052 57.9732 17.7224 50.4905 17.7224 41.2935Z"
                fill="#1814F3" stroke="#F9FFF9" stroke-width="0.3" />
            <path
                d="M34.0514 48.6577C34.0514 49.0363 34.3585 49.3434 34.7371 49.3434C35.1157 49.3434 35.4228 49.0367 35.4228 48.6577V34.7291C35.4228 34.3504 35.1158 34.0434 34.7371 34.0434C34.3585 34.0434 34.0514 34.3504 34.0514 34.7291V48.6577Z"
                fill="#1814F3" stroke="#483EA8" stroke-width="0.3" />
            <path
                d="M34.7367 35.7001L30.9361 39.5008L34.7367 35.7001ZM34.7367 35.7001L38.5375 39.5009C38.6712 39.6346 38.8473 39.7017 39.0224 39.7017L34.7367 35.7001ZM29.9662 39.5009C30.234 39.7687 30.6684 39.7689 30.936 39.5009L39.0224 39.7017C39.1972 39.7017 39.3734 39.6352 39.5073 39.5009C39.7751 39.233 39.7751 38.799 39.5073 38.5311L35.2216 34.2455C34.9538 33.9777 34.5194 33.9775 34.2518 34.2455C34.2518 34.2455 34.2518 34.2456 34.2517 34.2456L29.9662 38.5311C29.6983 38.799 29.6983 39.233 29.9662 39.5009Z"
                fill="#1814F3" stroke="#483EA8" stroke-width="0.3" />
        </symbol>

    </defs>
</svg>