<svg aria-hidden="true" style="position: absolute; width: 0; height: 0; overflow: hidden;" version="1.1"
    xmlns="http://www.w3.org/2000/svg" xmlns:xlink="http://www.w3.org/1999/xlink">
    <defs>
        <symbol width="24px" height="24px" viewBox="0 0 48 48" xmlns="http://www.w3.org/2000/svg" id="home">
            <path stroke-width="1"
                d="M 23.951172 4 A 1.50015 1.50015 0 0 0 23.070312 4.3222656 L 8.8730469 15.521484 C 7.0935305 16.919676 6 19.100391 6 21.400391 L 6 40.5 C 6 41.133333 6.2367979 41.80711 6.7148438 42.285156 C 7.1928895 42.763202 7.8666667 43 8.5 43 L 18.5 43 C 19.133333 43 19.80711 42.763202 20.285156 42.285156 C 20.763202 41.80711 21 41.133333 21 40.5 L 21 30.5 C 21 30.218182 21.218182 30 21.5 30 L 26.5 30 C 26.781818 30 27 30.218182 27 30.5 L 27 40.5 C 27 41.133333 27.236798 41.80711 27.714844 42.285156 C 28.19289 42.763202 28.866667 43 29.5 43 L 39.5 43 C 40.133333 43 40.80711 42.763202 41.285156 42.285156 C 41.763202 41.80711 42 41.133333 42 40.5 L 42 21.400391 C 42 19.155946 41.012069 16.901298 39.087891 15.490234 L 24.929688 4.3222656 A 1.50015 1.50015 0 0 0 23.951172 4 z M 24 7.4101562 L 37.271484 17.876953 A 1.50015 1.50015 0 0 0 37.3125 17.910156 C 38.388318 18.699095 39 20.044835 39 21.400391 L 39 40 L 30 40 L 30 30.5 C 30 28.581818 28.418182 27 26.5 27 L 21.5 27 C 19.581818 27 18 28.581818 18 30.5 L 18 40 L 9 40 L 9 21.400391 C 9 20.100391 9.7060794 18.680715 10.726562 17.878906 A 1.50015 1.50015 0 0 0 10.728516 17.876953 L 24 7.4101562 z" />
        </symbol>
        <symbol width="24" height="24" viewBox="0 0 25 25" fill="none" xmlns="http://www.w3.org/2000/svg" id="product">
            <path
                d="M2.39159 10.1391C2.35481 9.986 2.35324 9.82652 2.38699 9.67268C2.42075 9.51885 2.48894 9.37467 2.58645 9.25099C2.68396 9.12731 2.80824 9.02735 2.94995 8.95863C3.09167 8.88992 3.24711 8.85423 3.40461 8.85425H21.5952C21.7527 8.85423 21.9082 8.88992 22.0499 8.95863C22.1916 9.02735 22.3159 9.12731 22.4134 9.25099C22.5109 9.37467 22.5791 9.51885 22.6128 9.67268C22.6466 9.82652 22.645 9.986 22.6083 10.1391L19.9833 21.0766C19.9286 21.3042 19.799 21.5067 19.6152 21.6515C19.4314 21.7964 19.2042 21.8751 18.9702 21.8751H6.02961C5.79561 21.8751 5.56843 21.7964 5.38465 21.6515C5.20088 21.5067 5.07123 21.3042 5.01659 21.0766L2.39159 10.1391Z"
                stroke-width="2" stroke-linecap="round" stroke-linejoin="round" />
            <path d="M9.89567 8.85421V3.64587H5.729V8.85421H9.89567ZM9.89567 8.85421L13.2811 4.16671L19.7915 8.85421"
                stroke-width="3" stroke-linecap="round" stroke-linejoin="round" />
            <path d="M7.8125 13.0209H11.9792" stroke-width="3" stroke-linecap="round" />
        </symbol>
        <symbol width="20" height="20" viewBox="0 0 20 20" fill="none" xmlns="http://www.w3.org/2000/svg"
            id="statistics">
            <path d="M1 1V17C1 17.5304 1.21071 18.0391 1.58579 18.4142C1.96086 18.7893 2.46957 19 3 19H19"
                stroke-width="2" stroke-miterlimit="5.759" stroke-linecap="round" stroke-linejoin="round" />
            <path d="M5 12L9 8L13 12L19 6" stroke-width="2" stroke-miterlimit="5.759" stroke-linecap="round"
                stroke-linejoin="round" />
            <path d="M16 6H19V9" stroke-width="2" stroke-linecap="round" stroke-linejoin="round" />
        </symbol>
        <symbol width="25" height="22" viewBox="0 0 25 22" fill="none" xmlns="http://www.w3.org/2000/svg"
            id="receive-product">
            <path
                d="M2.39159 8.13914C2.35481 7.986 2.35324 7.82652 2.38699 7.67268C2.42075 7.51885 2.48894 7.37467 2.58645 7.25099C2.68396 7.12731 2.80824 7.02735 2.94995 6.95863C3.09167 6.88992 3.24711 6.85423 3.40461 6.85425H21.5952C21.7527 6.85423 21.9082 6.88992 22.0499 6.95863C22.1916 7.02735 22.3159 7.12731 22.4134 7.25099C22.5109 7.37467 22.5791 7.51885 22.6128 7.67268C22.6466 7.82652 22.645 7.986 22.6083 8.13914L19.9833 19.0766C19.9286 19.3042 19.799 19.5067 19.6152 19.6515C19.4314 19.7964 19.2042 19.8751 18.9702 19.8751H6.02961C5.79561 19.8751 5.56843 19.7964 5.38465 19.6515C5.20088 19.5067 5.07123 19.3042 5.01659 19.0766L2.39159 8.13914Z"
                stroke-width="2" stroke-linecap="round" stroke-linejoin="round" />
            <path d="M9.89567 6.85421V1.64587H5.729V6.85421H9.89567ZM9.89567 6.85421L13.2811 2.16671L19.7915 6.85421"
                stroke-width="2" stroke-linecap="round" stroke-linejoin="round" />
            <path d="M7.8125 11.0209H11.9792" stroke-width="2" stroke-linecap="round" />
        </symbol>
        <symbol viewBox="0 0 69 60" fill="none" xmlns="http://www.w3.org/2000/svg" id="upload-img">
            <path
                d="M36.1367 14.7458L36.2289 14.7733L36.2329 14.7688C36.6706 14.8481 37.1047 14.586 37.2333 14.1519C38.405 10.2152 42.0961 7.46504 46.2085 7.46504C46.6954 7.46504 47.0902 7.07016 47.0902 6.5833C47.0902 6.09643 46.6953 5.70156 46.2085 5.70156C41.1543 5.70156 36.9071 9.06665 35.5434 13.6493C35.4042 14.1162 35.6702 14.6067 36.1367 14.7458Z"
                fill="#1814F3" stroke="#F9FFF9" stroke-width="0.3" />
            <path
                d="M56.4524 42.4384H52.0621C51.6581 42.4384 51.3303 42.1107 51.3303 41.7067C51.3303 41.3027 51.658 40.9749 52.0621 40.9749H56.4524C62.5043 40.9749 67.4283 36.0509 67.4283 29.999C67.4283 23.9471 62.5043 19.023 56.4524 19.023H56.3468C56.1346 19.023 55.9329 18.9311 55.7938 18.7706C55.6548 18.6101 55.5921 18.3974 55.6224 18.1873C55.6877 17.7315 55.7207 17.2737 55.7207 16.8279C55.7207 11.5829 51.453 7.31531 46.2081 7.31531C44.1676 7.31531 42.2217 7.95296 40.5805 9.15978C40.2199 9.42478 39.7077 9.30718 39.4991 8.91047C34.8511 0.0596993 22.7109 -1.12887 16.4169 6.57053C13.7654 9.81417 12.7236 14.0336 13.5584 18.146C13.6504 18.6002 13.3029 19.0236 12.8413 19.0236H12.5481C6.49624 19.0236 1.57217 23.9477 1.57217 29.9996C1.57217 36.0514 6.49624 40.9755 12.5481 40.9755H16.9385C17.3425 40.9755 17.6702 41.3032 17.6702 41.7072C17.6702 42.1113 17.3425 42.439 16.9385 42.439H12.5481C5.68914 42.439 0.108643 36.8585 0.108643 29.9995C0.108643 23.3329 5.38019 17.8742 11.9737 17.5731C11.3544 13.3066 12.5387 9.00295 15.2837 5.64437C22.0224 -2.5996 34.9366 -1.67556 40.3958 7.51707C42.1373 6.42522 44.1302 5.85244 46.2079 5.85244C52.5624 5.85244 57.5978 11.261 57.1572 17.58C63.69 17.9463 68.8915 23.3763 68.8915 29.999C68.8915 36.8585 63.311 42.4384 56.4521 42.4384L56.4524 42.4384Z"
                fill="#1814F3" />
            <path
                d="M15.9586 41.2935C15.9586 51.4634 24.2323 59.737 34.4021 59.737C44.5721 59.737 52.8456 51.4633 52.8456 41.2935C52.8456 31.1235 44.5721 22.85 34.4021 22.85C24.2322 22.85 15.9586 31.1237 15.9586 41.2935ZM17.7224 41.2935C17.7224 32.0966 25.2051 24.6138 34.4021 24.6138C43.599 24.6138 51.0818 32.0964 51.0818 41.2935C51.0818 50.4904 43.599 57.9732 34.4021 57.9732C25.2052 57.9732 17.7224 50.4905 17.7224 41.2935Z"
                fill="#1814F3" stroke="#F9FFF9" stroke-width="0.3" />
            <path
                d="M34.0514 48.6577C34.0514 49.0363 34.3585 49.3434 34.7371 49.3434C35.1157 49.3434 35.4228 49.0367 35.4228 48.6577V34.7291C35.4228 34.3504 35.1158 34.0434 34.7371 34.0434C34.3585 34.0434 34.0514 34.3504 34.0514 34.7291V48.6577Z"
                fill="#1814F3" stroke="#483EA8" stroke-width="0.3" />
            <path
                d="M34.7367 35.7001L30.9361 39.5008L34.7367 35.7001ZM34.7367 35.7001L38.5375 39.5009C38.6712 39.6346 38.8473 39.7017 39.0224 39.7017L34.7367 35.7001ZM29.9662 39.5009C30.234 39.7687 30.6684 39.7689 30.936 39.5009L39.0224 39.7017C39.1972 39.7017 39.3734 39.6352 39.5073 39.5009C39.7751 39.233 39.7751 38.799 39.5073 38.5311L35.2216 34.2455C34.9538 33.9777 34.5194 33.9775 34.2518 34.2455C34.2518 34.2455 34.2518 34.2456 34.2517 34.2456L29.9662 38.5311C29.6983 38.799 29.6983 39.233 29.9662 39.5009Z"
                fill="#1814F3" stroke="#483EA8" stroke-width="0.3" />
        </symbol>
        <svg width="18" height="19" viewBox="0 0 18 19" fill="none" xmlns="http://www.w3.org/2000/svg" id="filials">
<path d="M17.6797 3.24989C17.6796 2.69558 17.5222 2.15267 17.2259 1.68422C16.9295 1.21577 16.5064 0.841013 16.0055 0.603462C15.5047 0.365912 14.9467 0.275321 14.3965 0.342212C13.8462 0.409103 13.3262 0.63073 12.8969 0.981353C12.4675 1.33198 12.1465 1.79721 11.971 2.32301C11.7955 2.84881 11.7728 3.41361 11.9055 3.95181C12.0382 4.49001 12.3209 4.97952 12.7206 5.36349C13.1204 5.74745 13.621 6.01012 14.1641 6.12099V7.15614C14.1641 7.62234 13.9789 8.06945 13.6492 8.3991C13.3196 8.72876 12.8725 8.91395 12.4063 8.91395H5.37501C4.7409 8.91268 4.12371 9.11841 3.61719 9.49989V6.12099C4.32855 5.97578 4.96065 5.57162 5.39094 4.98685C5.82124 4.40208 6.01908 3.67838 5.94611 2.95603C5.87314 2.23368 5.53455 1.56417 4.99599 1.07727C4.45744 0.590381 3.75728 0.320802 3.03126 0.320802C2.30523 0.320802 1.60507 0.590381 1.06652 1.07727C0.527962 1.56417 0.189376 2.23368 0.116405 2.95603C0.0434329 3.67838 0.241273 4.40208 0.67157 4.98685C1.10187 5.57162 1.73397 5.97578 2.44532 6.12099V12.8788C1.73397 13.024 1.10187 13.4282 0.67157 14.0129C0.241273 14.5977 0.0434329 15.3214 0.116405 16.0438C0.189376 16.7661 0.527962 17.4356 1.06652 17.9225C1.60507 18.4094 2.30523 18.679 3.03126 18.679C3.75728 18.679 4.45744 18.4094 4.99599 17.9225C5.53455 17.4356 5.87314 16.7661 5.94611 16.0438C6.01908 15.3214 5.82124 14.5977 5.39094 14.0129C4.96065 13.4282 4.32855 13.024 3.61719 12.8788V11.8436C3.61719 11.3774 3.80239 10.9303 4.13205 10.6007C4.4617 10.271 4.90881 10.0858 5.37501 10.0858H12.4063C13.1833 10.0858 13.9284 9.77717 14.4779 9.22774C15.0273 8.67832 15.3359 7.93314 15.3359 7.15614V6.12099C15.9973 5.98506 16.5915 5.62526 17.0184 5.10226C17.4454 4.57925 17.6789 3.92503 17.6797 3.24989ZM1.27344 3.24989C1.27344 2.90223 1.37654 2.56237 1.56969 2.2733C1.76284 1.98423 2.03737 1.75893 2.35857 1.62588C2.67977 1.49284 3.03321 1.45803 3.37419 1.52586C3.71517 1.59368 4.02838 1.7611 4.27422 2.00693C4.52005 2.25277 4.68747 2.56598 4.75529 2.90696C4.82312 3.24794 4.78831 3.60138 4.65526 3.92258C4.52222 4.24378 4.29692 4.51831 4.00784 4.71146C3.71877 4.90461 3.37892 5.0077 3.03126 5.0077C2.56506 5.0077 2.11795 4.82251 1.7883 4.49285C1.45864 4.1632 1.27344 3.71609 1.27344 3.24989ZM4.78907 15.7499C4.78907 16.0976 4.68598 16.4374 4.49282 16.7265C4.29967 17.0156 4.02514 17.2409 3.70394 17.3739C3.38274 17.5069 3.02931 17.5418 2.68832 17.4739C2.34734 17.4061 2.03413 17.2387 1.7883 16.9929C1.54246 16.747 1.37505 16.4338 1.30722 16.0928C1.23939 15.7518 1.2742 15.3984 1.40725 15.0772C1.54029 14.756 1.7656 14.4815 2.05467 14.2883C2.34374 14.0952 2.68359 13.9921 3.03126 13.9921C3.49746 13.9921 3.94456 14.1773 4.27422 14.5069C4.60387 14.8366 4.78907 15.2837 4.78907 15.7499ZM14.75 5.0077C14.4023 5.0077 14.0625 4.90461 13.7734 4.71146C13.4843 4.51831 13.259 4.24378 13.126 3.92258C12.993 3.60138 12.9581 3.24794 13.026 2.90696C13.0938 2.56598 13.2612 2.25277 13.507 2.00693C13.7529 1.7611 14.0661 1.59368 14.4071 1.52586C14.7481 1.45803 15.1015 1.49284 15.4227 1.62588C15.7439 1.75893 16.0184 1.98423 16.2116 2.2733C16.4047 2.56237 16.5078 2.90223 16.5078 3.24989C16.5078 3.71609 16.3226 4.1632 15.993 4.49285C15.6633 4.82251 15.2162 5.0077 14.75 5.0077Z" fill="#2D60FF"/>
</svg>

<svg width="25" height="25" viewBox="0 0 25 25" fill="none" xmlns="http://www.w3.org/2000/svg" id="employee">
<path d="M12.7917 11.3266C12.0106 11.3184 11.2494 11.0793 10.604 10.6393C9.95856 10.1994 9.4577 9.57839 9.16449 8.85441C8.87127 8.13044 8.7988 7.33589 8.95621 6.57081C9.11361 5.80574 9.49386 5.10433 10.0491 4.55491C10.6043 4.00549 11.3096 3.63261 12.0763 3.48322C12.843 3.33384 13.6367 3.41462 14.3576 3.7154C15.0785 4.01619 15.6942 4.52352 16.1274 5.17353C16.5605 5.82354 16.7916 6.58717 16.7917 7.36827C16.7843 8.42304 16.3592 9.4319 15.6095 10.1738C14.8597 10.9158 13.8465 11.3303 12.7917 11.3266ZM12.7917 4.79883C12.2853 4.80704 11.7927 4.96469 11.3757 5.25197C10.9587 5.53925 10.6358 5.94335 10.4477 6.41352C10.2596 6.88369 10.2146 7.39895 10.3184 7.8946C10.4222 8.39025 10.6702 8.84417 11.0311 9.19936C11.3921 9.55455 11.8499 9.79516 12.3472 9.89097C12.8444 9.98678 13.3589 9.93352 13.826 9.73788C14.2931 9.54224 14.6919 9.21295 14.9725 8.79135C15.253 8.36976 15.4027 7.87467 15.4028 7.36827C15.3954 6.68186 15.1167 6.02626 14.6274 5.54479C14.1381 5.06331 13.4781 4.79512 12.7917 4.79883Z" fill="#2D60FF"/>
<path d="M12.7916 11.3266C12.0105 11.3184 11.2494 11.0793 10.6039 10.6393C9.95848 10.1994 9.45762 9.57839 9.1644 8.85441C8.87119 8.13044 8.79872 7.33589 8.95612 6.57081C9.11353 5.80574 9.49377 5.10433 10.049 4.55491C10.6042 4.00549 11.3095 3.63261 12.0762 3.48322C12.8429 3.33384 13.6366 3.41462 14.3575 3.7154C15.0784 4.01619 15.6941 4.52352 16.1273 5.17353C16.5604 5.82354 16.7915 6.58717 16.7916 7.36827C16.7842 8.42304 16.3591 9.4319 15.6094 10.1738C14.8596 10.9158 13.8464 11.3303 12.7916 11.3266ZM12.7916 4.79883C12.2853 4.80704 11.7926 4.96469 11.3756 5.25197C10.9586 5.53925 10.6357 5.94335 10.4476 6.41352C10.2595 6.88369 10.2146 7.39895 10.3184 7.8946C10.4222 8.39025 10.6701 8.84417 11.0311 9.19936C11.392 9.55455 11.8499 9.79516 12.3471 9.89097C12.8444 9.98678 13.3588 9.93352 13.8259 9.73788C14.293 9.54224 14.6919 9.21295 14.9724 8.79135C15.2529 8.36976 15.4026 7.87467 15.4027 7.36827C15.3954 6.68186 15.1166 6.02626 14.6273 5.54479C14.138 5.06331 13.478 4.79512 12.7916 4.79883ZM15.2152 12.2572C12.135 11.7212 8.96406 12.209 6.18742 13.646C5.99032 13.7555 5.82711 13.917 5.71565 14.113C5.6042 14.309 5.54878 14.5318 5.55547 14.7572V17.2294C5.55547 17.4136 5.62864 17.5902 5.75887 17.7204C5.88911 17.8507 6.06574 17.9238 6.24992 17.9238C6.4341 17.9238 6.61073 17.8507 6.74096 17.7204C6.8712 17.5902 6.94436 17.4136 6.94436 17.2294V14.8474C9.51913 13.5555 12.4471 13.1456 15.2777 13.6808L15.2152 12.2572Z" fill="#2D60FF"/>
<path d="M22.9166 15.2779H18.2639V14.2501C18.2639 14.0659 18.1907 13.8893 18.0605 13.7591C17.9302 13.6288 17.7536 13.5557 17.5694 13.5557C17.3852 13.5557 17.2086 13.6288 17.0784 13.7591C16.9481 13.8893 16.875 14.0659 16.875 14.2501V15.2779H11.8055C11.6214 15.2779 11.4447 15.3511 11.3145 15.4813C11.1842 15.6115 11.1111 15.7882 11.1111 15.9723V22.9168C11.1111 23.101 11.1842 23.2776 11.3145 23.4078C11.4447 23.5381 11.6214 23.6112 11.8055 23.6112H22.9166C23.1008 23.6112 23.2775 23.5381 23.4077 23.4078C23.5379 23.2776 23.6111 23.101 23.6111 22.9168V15.9723C23.6111 15.7882 23.5379 15.6115 23.4077 15.4813C23.2775 15.3511 23.1008 15.2779 22.9166 15.2779ZM22.2222 22.2223H12.5V16.6668H16.875V16.9515C16.875 17.1357 16.9481 17.3123 17.0784 17.4425C17.2086 17.5728 17.3852 17.6459 17.5694 17.6459C17.7536 17.6459 17.9302 17.5728 18.0605 17.4425C18.1907 17.3123 18.2639 17.1357 18.2639 16.9515V16.6668H22.2222V22.2223Z" fill="#2D60FF"/>
<path d="M15.1459 19.0414H19.2847V20.0136H15.1459V19.0414ZM7.52781 8.4997C5.6052 8.53187 3.71593 9.00716 2.00697 9.88859C1.82111 9.98676 1.66543 10.1336 1.55657 10.3134C1.4477 10.4932 1.38975 10.6992 1.38892 10.9094V13.0622C1.38892 13.2464 1.46208 13.423 1.59231 13.5532C1.72255 13.6835 1.89918 13.7566 2.08336 13.7566C2.26754 13.7566 2.44417 13.6835 2.57441 13.5532C2.70464 13.423 2.7778 13.2464 2.7778 13.0622V11.0483C4.41065 10.2356 6.21847 9.83726 8.04169 9.88859C7.80315 9.45336 7.63 8.98538 7.52781 8.4997ZM22.9931 9.88165C21.4604 9.07763 19.7758 8.60445 18.0486 8.49276C17.9469 8.97758 17.7762 9.4453 17.5417 9.88165C19.1688 9.92059 20.7672 10.319 22.2222 11.0483V13.0622C22.2222 13.2464 22.2954 13.423 22.4256 13.5532C22.5559 13.6835 22.7325 13.7566 22.9167 13.7566C23.1009 13.7566 23.2775 13.6835 23.4077 13.5532C23.538 13.423 23.6111 13.2464 23.6111 13.0622V10.9094C23.6116 10.6981 23.5542 10.4906 23.4453 10.3094C23.3363 10.1283 23.18 9.98037 22.9931 9.88165ZM7.4028 7.36776V6.90248C6.85879 6.82968 6.36381 6.54987 6.02091 6.1213C5.67801 5.69273 5.51361 5.14842 5.56193 4.60169C5.61025 4.05495 5.86757 3.54792 6.28032 3.18613C6.69307 2.82434 7.22945 2.63568 7.7778 2.65942C8.34816 2.65839 8.89637 2.88017 9.30558 3.27748C9.66662 2.97969 10.0632 2.72777 10.4861 2.52748C10.0136 1.98419 9.38762 1.59681 8.69057 1.41642C7.99352 1.23602 7.25817 1.27107 6.58145 1.51695C5.90472 1.76283 5.31837 2.20799 4.8997 2.79377C4.48103 3.37954 4.24968 4.07843 4.23614 4.79831C4.25071 5.67939 4.59322 6.5234 5.19676 7.16546C5.80031 7.80753 6.62153 8.20154 7.50003 8.27054C7.44112 7.97306 7.40858 7.67096 7.4028 7.36776ZM17.2014 1.27054C16.7242 1.27064 16.2518 1.36589 15.8118 1.55071C15.3718 1.73552 14.9731 2.00621 14.6389 2.34692C15.1084 2.51704 15.5523 2.7507 15.9584 3.04137C16.2826 2.81632 16.6618 2.68348 17.0555 2.657C17.4493 2.63052 17.8429 2.71141 18.1943 2.89104C18.5457 3.07066 18.8418 3.34229 19.0509 3.67696C19.2601 4.01162 19.3745 4.39678 19.382 4.79137C19.3776 5.19667 19.2585 5.59245 19.0385 5.93288C18.8186 6.27331 18.5066 6.54448 18.1389 6.71498C18.1669 6.92912 18.1808 7.14486 18.1806 7.36081C18.1787 7.63996 18.1555 7.91855 18.1111 8.19415C18.8677 7.99966 19.5387 7.56052 20.0197 6.94509C20.5007 6.32966 20.7648 5.57247 20.7709 4.79137C20.7617 3.852 20.3811 2.95443 19.7123 2.29473C19.0435 1.63503 18.1408 1.26682 17.2014 1.27054Z" fill="#2D60FF"/>
</svg>

<svg width="24" height="24" viewBox="0 0 24 24" fill="none" xmlns="http://www.w3.org/2000/svg" id="undelivered-products">
<path d="M10.8 5.5L10.4 3M10.8 5.5C9.45844 5.81119 8.29065 6.63238 7.54402 7.78966C6.79739 8.94694 6.53056 10.3494 6.80005 11.7L7.10005 13.5C7.50005 15.8 5.80005 16.7 6.00005 17.9C6.10005 18.5 6.30005 19 6.80005 19L19.5 16.5C20 16.4 19.9 15.8 19.8 15.2C19.6 14.1 17.6 13.8 17.2 11.5L16.8 9.7C16.5552 8.34388 15.7918 7.13645 14.6717 6.33371C13.5516 5.53098 12.1629 5.19607 10.8 5.4V5.5ZM3.80005 9.8C3.89149 7.98706 4.59677 6.25913 5.80005 4.9M8.50005 18.6C8.78997 19.3089 9.30445 19.9032 9.96459 20.2917C10.6247 20.6801 11.394 20.8413 12.1546 20.7505C12.9151 20.6597 13.6249 20.3219 14.175 19.7889C14.7251 19.256 15.0852 18.5573 15.2 17.8L15.3 17.3L8.50005 18.6Z"  stroke-width="2" stroke-linecap="round" stroke-linejoin="round"/>
</svg>

<svg width="24" height="24" viewBox="0 0 24 24" fill="none" xmlns="http://www.w3.org/2000/svg" id="delivered-products">
<g clip-path="url(#clip0_220_2754)">
<path d="M15.75 17.6953L19.7227 13.7227L20.7773 14.7773L15.75 19.8047L12.9727 17.0273L14.0273 15.9727L15.75 17.6953ZM24 9V24H9V14.8477C8.52344 14.9492 8.02344 15 7.5 15C6.46094 15 5.48828 14.8047 4.58203 14.4141C3.67578 14.0234 2.87891 13.4883 2.19141 12.8086C1.50391 12.1289 0.96875 11.3359 0.585938 10.4297C0.203125 9.52344 0.0078125 8.54688 0 7.5C0 6.46094 0.195313 5.48828 0.585938 4.58203C0.976562 3.67578 1.51172 2.87891 2.19141 2.19141C2.87109 1.50391 3.66406 0.96875 4.57031 0.585938C5.47656 0.203125 6.45312 0.0078125 7.5 0C8.53906 0 9.51172 0.195313 10.418 0.585938C11.3242 0.976562 12.1211 1.51172 12.8086 2.19141C13.4961 2.87109 14.0312 3.66406 14.4141 4.57031C14.7969 5.47656 14.9922 6.45312 15 7.5C15 8.02344 14.9492 8.52344 14.8477 9H24ZM1.5 7.5C1.5 8.32812 1.65625 9.10547 1.96875 9.83203C2.28125 10.5586 2.71094 11.1914 3.25781 11.7305C3.80469 12.2695 4.44141 12.6992 5.16797 13.0195C5.89453 13.3398 6.67188 13.5 7.5 13.5C8.32812 13.5 9.10547 13.3438 9.83203 13.0312C10.5586 12.7188 11.1914 12.2891 11.7305 11.7422C12.2695 11.1953 12.6992 10.5586 13.0195 9.83203C13.3398 9.10547 13.5 8.32812 13.5 7.5C13.5 6.67188 13.3438 5.89453 13.0312 5.16797C12.7188 4.44141 12.2891 3.80859 11.7422 3.26953C11.1953 2.73047 10.5586 2.30078 9.83203 1.98047C9.10547 1.66016 8.32812 1.5 7.5 1.5C6.67188 1.5 5.89453 1.65625 5.16797 1.96875C4.44141 2.28125 3.80859 2.71094 3.26953 3.25781C2.73047 3.80469 2.30078 4.44141 1.98047 5.16797C1.66016 5.89453 1.5 6.67188 1.5 7.5ZM22.5 10.5H14.3789C13.9805 11.3828 13.457 12.1484 12.8086 12.7969C12.1602 13.4453 11.3906 13.9727 10.5 14.3789V22.5H22.5V10.5ZM11.7773 5.77734L6.75 10.8047L3.97266 8.02734L5.02734 6.97266L6.75 8.69531L10.7227 4.72266L11.7773 5.77734Z" fill="#B1B1B1"/>
</g>
<defs>
<clipPath id="clip0_220_2754">
<rect width="24" height="24" fill="white"/>
</clipPath>
</defs>
</svg>


    </defs>
</svg>