<svg aria-hidden="true" style="position: absolute; width: 0; height: 0; overflow: hidden;" version="1.1"
    xmlns="http://www.w3.org/2000/svg" xmlns:xlink="http://www.w3.org/1999/xlink">
    <defs>
        <symbol width="24px" height="24px" viewBox="0 0 48 48" xmlns="http://www.w3.org/2000/svg" id="home">
            <path stroke-width="1"
                d="M 23.951172 4 A 1.50015 1.50015 0 0 0 23.070312 4.3222656 L 8.8730469 15.521484 C 7.0935305 16.919676 6 19.100391 6 21.400391 L 6 40.5 C 6 41.133333 6.2367979 41.80711 6.7148438 42.285156 C 7.1928895 42.763202 7.8666667 43 8.5 43 L 18.5 43 C 19.133333 43 19.80711 42.763202 20.285156 42.285156 C 20.763202 41.80711 21 41.133333 21 40.5 L 21 30.5 C 21 30.218182 21.218182 30 21.5 30 L 26.5 30 C 26.781818 30 27 30.218182 27 30.5 L 27 40.5 C 27 41.133333 27.236798 41.80711 27.714844 42.285156 C 28.19289 42.763202 28.866667 43 29.5 43 L 39.5 43 C 40.133333 43 40.80711 42.763202 41.285156 42.285156 C 41.763202 41.80711 42 41.133333 42 40.5 L 42 21.400391 C 42 19.155946 41.012069 16.901298 39.087891 15.490234 L 24.929688 4.3222656 A 1.50015 1.50015 0 0 0 23.951172 4 z M 24 7.4101562 L 37.271484 17.876953 A 1.50015 1.50015 0 0 0 37.3125 17.910156 C 38.388318 18.699095 39 20.044835 39 21.400391 L 39 40 L 30 40 L 30 30.5 C 30 28.581818 28.418182 27 26.5 27 L 21.5 27 C 19.581818 27 18 28.581818 18 30.5 L 18 40 L 9 40 L 9 21.400391 C 9 20.100391 9.7060794 18.680715 10.726562 17.878906 A 1.50015 1.50015 0 0 0 10.728516 17.876953 L 24 7.4101562 z" />
        </symbol>
        <symbol width="24" height="24" viewBox="0 0 25 25" fill="none" xmlns="http://www.w3.org/2000/svg" id="product">
            <path
                d="M2.39159 10.1391C2.35481 9.986 2.35324 9.82652 2.38699 9.67268C2.42075 9.51885 2.48894 9.37467 2.58645 9.25099C2.68396 9.12731 2.80824 9.02735 2.94995 8.95863C3.09167 8.88992 3.24711 8.85423 3.40461 8.85425H21.5952C21.7527 8.85423 21.9082 8.88992 22.0499 8.95863C22.1916 9.02735 22.3159 9.12731 22.4134 9.25099C22.5109 9.37467 22.5791 9.51885 22.6128 9.67268C22.6466 9.82652 22.645 9.986 22.6083 10.1391L19.9833 21.0766C19.9286 21.3042 19.799 21.5067 19.6152 21.6515C19.4314 21.7964 19.2042 21.8751 18.9702 21.8751H6.02961C5.79561 21.8751 5.56843 21.7964 5.38465 21.6515C5.20088 21.5067 5.07123 21.3042 5.01659 21.0766L2.39159 10.1391Z"
                stroke-width="2" stroke-linecap="round" stroke-linejoin="round" />
            <path d="M9.89567 8.85421V3.64587H5.729V8.85421H9.89567ZM9.89567 8.85421L13.2811 4.16671L19.7915 8.85421"
                stroke-width="3" stroke-linecap="round" stroke-linejoin="round" />
            <path d="M7.8125 13.0209H11.9792" stroke-width="3" stroke-linecap="round" />
        </symbol>
        <symbol width="20" height="20" viewBox="0 0 20 20" fill="none" xmlns="http://www.w3.org/2000/svg"
            id="statistics">
            <path d="M1 1V17C1 17.5304 1.21071 18.0391 1.58579 18.4142C1.96086 18.7893 2.46957 19 3 19H19"
                stroke-width="2" stroke-miterlimit="5.759" stroke-linecap="round" stroke-linejoin="round" />
            <path d="M5 12L9 8L13 12L19 6" stroke-width="2" stroke-miterlimit="5.759" stroke-linecap="round"
                stroke-linejoin="round" />
            <path d="M16 6H19V9" stroke-width="2" stroke-linecap="round" stroke-linejoin="round" />
        </symbol>
        <symbol width="25" height="22" viewBox="0 0 25 22" fill="none" xmlns="http://www.w3.org/2000/svg"
            id="receive-product">
            <path
                d="M2.39159 8.13914C2.35481 7.986 2.35324 7.82652 2.38699 7.67268C2.42075 7.51885 2.48894 7.37467 2.58645 7.25099C2.68396 7.12731 2.80824 7.02735 2.94995 6.95863C3.09167 6.88992 3.24711 6.85423 3.40461 6.85425H21.5952C21.7527 6.85423 21.9082 6.88992 22.0499 6.95863C22.1916 7.02735 22.3159 7.12731 22.4134 7.25099C22.5109 7.37467 22.5791 7.51885 22.6128 7.67268C22.6466 7.82652 22.645 7.986 22.6083 8.13914L19.9833 19.0766C19.9286 19.3042 19.799 19.5067 19.6152 19.6515C19.4314 19.7964 19.2042 19.8751 18.9702 19.8751H6.02961C5.79561 19.8751 5.56843 19.7964 5.38465 19.6515C5.20088 19.5067 5.07123 19.3042 5.01659 19.0766L2.39159 8.13914Z"
                stroke-width="2" stroke-linecap="round" stroke-linejoin="round" />
            <path d="M9.89567 6.85421V1.64587H5.729V6.85421H9.89567ZM9.89567 6.85421L13.2811 2.16671L19.7915 6.85421"
                stroke-width="2" stroke-linecap="round" stroke-linejoin="round" />
            <path d="M7.8125 11.0209H11.9792" stroke-width="2" stroke-linecap="round" />
        </symbol>

    </defs>
</svg>