<svg aria-hidden="true" style="position: absolute; width: 0; height: 0; overflow: hidden;" version="1.1"
    xmlns="http://www.w3.org/2000/svg" xmlns:xlink="http://www.w3.org/1999/xlink">
    <defs>
        <symbol width="24px" height="24px" viewBox="0 0 48 48" xmlns="http://www.w3.org/2000/svg" id="home">
            <path stroke-width="1"
                d="M 23.951172 4 A 1.50015 1.50015 0 0 0 23.070312 4.3222656 L 8.8730469 15.521484 C 7.0935305 16.919676 6 19.100391 6 21.400391 L 6 40.5 C 6 41.133333 6.2367979 41.80711 6.7148438 42.285156 C 7.1928895 42.763202 7.8666667 43 8.5 43 L 18.5 43 C 19.133333 43 19.80711 42.763202 20.285156 42.285156 C 20.763202 41.80711 21 41.133333 21 40.5 L 21 30.5 C 21 30.218182 21.218182 30 21.5 30 L 26.5 30 C 26.781818 30 27 30.218182 27 30.5 L 27 40.5 C 27 41.133333 27.236798 41.80711 27.714844 42.285156 C 28.19289 42.763202 28.866667 43 29.5 43 L 39.5 43 C 40.133333 43 40.80711 42.763202 41.285156 42.285156 C 41.763202 41.80711 42 41.133333 42 40.5 L 42 21.400391 C 42 19.155946 41.012069 16.901298 39.087891 15.490234 L 24.929688 4.3222656 A 1.50015 1.50015 0 0 0 23.951172 4 z M 24 7.4101562 L 37.271484 17.876953 A 1.50015 1.50015 0 0 0 37.3125 17.910156 C 38.388318 18.699095 39 20.044835 39 21.400391 L 39 40 L 30 40 L 30 30.5 C 30 28.581818 28.418182 27 26.5 27 L 21.5 27 C 19.581818 27 18 28.581818 18 30.5 L 18 40 L 9 40 L 9 21.400391 C 9 20.100391 9.7060794 18.680715 10.726562 17.878906 A 1.50015 1.50015 0 0 0 10.728516 17.876953 L 24 7.4101562 z" />
        </symbol>
        <symbol width="24" height="24" viewBox="0 0 25 25" fill="none" xmlns="http://www.w3.org/2000/svg" id="product">
            <path
                d="M2.39159 10.1391C2.35481 9.986 2.35324 9.82652 2.38699 9.67268C2.42075 9.51885 2.48894 9.37467 2.58645 9.25099C2.68396 9.12731 2.80824 9.02735 2.94995 8.95863C3.09167 8.88992 3.24711 8.85423 3.40461 8.85425H21.5952C21.7527 8.85423 21.9082 8.88992 22.0499 8.95863C22.1916 9.02735 22.3159 9.12731 22.4134 9.25099C22.5109 9.37467 22.5791 9.51885 22.6128 9.67268C22.6466 9.82652 22.645 9.986 22.6083 10.1391L19.9833 21.0766C19.9286 21.3042 19.799 21.5067 19.6152 21.6515C19.4314 21.7964 19.2042 21.8751 18.9702 21.8751H6.02961C5.79561 21.8751 5.56843 21.7964 5.38465 21.6515C5.20088 21.5067 5.07123 21.3042 5.01659 21.0766L2.39159 10.1391Z"
                stroke-width="2" stroke-linecap="round" stroke-linejoin="round" />
            <path d="M9.89567 8.85421V3.64587H5.729V8.85421H9.89567ZM9.89567 8.85421L13.2811 4.16671L19.7915 8.85421"
                stroke-width="3" stroke-linecap="round" stroke-linejoin="round" />
            <path d="M7.8125 13.0209H11.9792" stroke-width="3" stroke-linecap="round" />
        </symbol>
        <symbol width="20" height="20" viewBox="0 0 20 20" fill="none" xmlns="http://www.w3.org/2000/svg"
            id="statistics">
            <path d="M1 1V17C1 17.5304 1.21071 18.0391 1.58579 18.4142C1.96086 18.7893 2.46957 19 3 19H19"
                stroke-width="2" stroke-miterlimit="5.759" stroke-linecap="round" stroke-linejoin="round" />
            <path d="M5 12L9 8L13 12L19 6" stroke-width="2" stroke-miterlimit="5.759" stroke-linecap="round"
                stroke-linejoin="round" />
            <path d="M16 6H19V9" stroke-width="2" stroke-linecap="round" stroke-linejoin="round" />
        </symbol>
        <symbol width="25" height="22" viewBox="0 0 25 22" fill="none" xmlns="http://www.w3.org/2000/svg"
            id="receive-product">
            <path
                d="M2.39159 8.13914C2.35481 7.986 2.35324 7.82652 2.38699 7.67268C2.42075 7.51885 2.48894 7.37467 2.58645 7.25099C2.68396 7.12731 2.80824 7.02735 2.94995 6.95863C3.09167 6.88992 3.24711 6.85423 3.40461 6.85425H21.5952C21.7527 6.85423 21.9082 6.88992 22.0499 6.95863C22.1916 7.02735 22.3159 7.12731 22.4134 7.25099C22.5109 7.37467 22.5791 7.51885 22.6128 7.67268C22.6466 7.82652 22.645 7.986 22.6083 8.13914L19.9833 19.0766C19.9286 19.3042 19.799 19.5067 19.6152 19.6515C19.4314 19.7964 19.2042 19.8751 18.9702 19.8751H6.02961C5.79561 19.8751 5.56843 19.7964 5.38465 19.6515C5.20088 19.5067 5.07123 19.3042 5.01659 19.0766L2.39159 8.13914Z"
                stroke-width="2" stroke-linecap="round" stroke-linejoin="round" />
            <path d="M9.89567 6.85421V1.64587H5.729V6.85421H9.89567ZM9.89567 6.85421L13.2811 2.16671L19.7915 6.85421"
                stroke-width="2" stroke-linecap="round" stroke-linejoin="round" />
            <path d="M7.8125 11.0209H11.9792" stroke-width="2" stroke-linecap="round" />
        </symbol>
        <symbol viewBox="0 0 69 60" fill="none" xmlns="http://www.w3.org/2000/svg" id="upload-img">
            <path
                d="M36.1367 14.7458L36.2289 14.7733L36.2329 14.7688C36.6706 14.8481 37.1047 14.586 37.2333 14.1519C38.405 10.2152 42.0961 7.46504 46.2085 7.46504C46.6954 7.46504 47.0902 7.07016 47.0902 6.5833C47.0902 6.09643 46.6953 5.70156 46.2085 5.70156C41.1543 5.70156 36.9071 9.06665 35.5434 13.6493C35.4042 14.1162 35.6702 14.6067 36.1367 14.7458Z"
                fill="#1814F3" stroke="#F9FFF9" stroke-width="0.3" />
            <path
                d="M56.4524 42.4384H52.0621C51.6581 42.4384 51.3303 42.1107 51.3303 41.7067C51.3303 41.3027 51.658 40.9749 52.0621 40.9749H56.4524C62.5043 40.9749 67.4283 36.0509 67.4283 29.999C67.4283 23.9471 62.5043 19.023 56.4524 19.023H56.3468C56.1346 19.023 55.9329 18.9311 55.7938 18.7706C55.6548 18.6101 55.5921 18.3974 55.6224 18.1873C55.6877 17.7315 55.7207 17.2737 55.7207 16.8279C55.7207 11.5829 51.453 7.31531 46.2081 7.31531C44.1676 7.31531 42.2217 7.95296 40.5805 9.15978C40.2199 9.42478 39.7077 9.30718 39.4991 8.91047C34.8511 0.0596993 22.7109 -1.12887 16.4169 6.57053C13.7654 9.81417 12.7236 14.0336 13.5584 18.146C13.6504 18.6002 13.3029 19.0236 12.8413 19.0236H12.5481C6.49624 19.0236 1.57217 23.9477 1.57217 29.9996C1.57217 36.0514 6.49624 40.9755 12.5481 40.9755H16.9385C17.3425 40.9755 17.6702 41.3032 17.6702 41.7072C17.6702 42.1113 17.3425 42.439 16.9385 42.439H12.5481C5.68914 42.439 0.108643 36.8585 0.108643 29.9995C0.108643 23.3329 5.38019 17.8742 11.9737 17.5731C11.3544 13.3066 12.5387 9.00295 15.2837 5.64437C22.0224 -2.5996 34.9366 -1.67556 40.3958 7.51707C42.1373 6.42522 44.1302 5.85244 46.2079 5.85244C52.5624 5.85244 57.5978 11.261 57.1572 17.58C63.69 17.9463 68.8915 23.3763 68.8915 29.999C68.8915 36.8585 63.311 42.4384 56.4521 42.4384L56.4524 42.4384Z"
                fill="#1814F3" />
            <path
                d="M15.9586 41.2935C15.9586 51.4634 24.2323 59.737 34.4021 59.737C44.5721 59.737 52.8456 51.4633 52.8456 41.2935C52.8456 31.1235 44.5721 22.85 34.4021 22.85C24.2322 22.85 15.9586 31.1237 15.9586 41.2935ZM17.7224 41.2935C17.7224 32.0966 25.2051 24.6138 34.4021 24.6138C43.599 24.6138 51.0818 32.0964 51.0818 41.2935C51.0818 50.4904 43.599 57.9732 34.4021 57.9732C25.2052 57.9732 17.7224 50.4905 17.7224 41.2935Z"
                fill="#1814F3" stroke="#F9FFF9" stroke-width="0.3" />
            <path
                d="M34.0514 48.6577C34.0514 49.0363 34.3585 49.3434 34.7371 49.3434C35.1157 49.3434 35.4228 49.0367 35.4228 48.6577V34.7291C35.4228 34.3504 35.1158 34.0434 34.7371 34.0434C34.3585 34.0434 34.0514 34.3504 34.0514 34.7291V48.6577Z"
                fill="#1814F3" stroke="#483EA8" stroke-width="0.3" />
            <path
                d="M34.7367 35.7001L30.9361 39.5008L34.7367 35.7001ZM34.7367 35.7001L38.5375 39.5009C38.6712 39.6346 38.8473 39.7017 39.0224 39.7017L34.7367 35.7001ZM29.9662 39.5009C30.234 39.7687 30.6684 39.7689 30.936 39.5009L39.0224 39.7017C39.1972 39.7017 39.3734 39.6352 39.5073 39.5009C39.7751 39.233 39.7751 38.799 39.5073 38.5311L35.2216 34.2455C34.9538 33.9777 34.5194 33.9775 34.2518 34.2455C34.2518 34.2455 34.2518 34.2456 34.2517 34.2456L29.9662 38.5311C29.6983 38.799 29.6983 39.233 29.9662 39.5009Z"
                fill="#1814F3" stroke="#483EA8" stroke-width="0.3" />
        </symbol>
        <svg width="18" height="19" viewBox="0 0 18 19" fill="none" xmlns="http://www.w3.org/2000/svg" id="filials">
<path d="M17.6797 3.24989C17.6796 2.69558 17.5222 2.15267 17.2259 1.68422C16.9295 1.21577 16.5064 0.841013 16.0055 0.603462C15.5047 0.365912 14.9467 0.275321 14.3965 0.342212C13.8462 0.409103 13.3262 0.63073 12.8969 0.981353C12.4675 1.33198 12.1465 1.79721 11.971 2.32301C11.7955 2.84881 11.7728 3.41361 11.9055 3.95181C12.0382 4.49001 12.3209 4.97952 12.7206 5.36349C13.1204 5.74745 13.621 6.01012 14.1641 6.12099V7.15614C14.1641 7.62234 13.9789 8.06945 13.6492 8.3991C13.3196 8.72876 12.8725 8.91395 12.4063 8.91395H5.37501C4.7409 8.91268 4.12371 9.11841 3.61719 9.49989V6.12099C4.32855 5.97578 4.96065 5.57162 5.39094 4.98685C5.82124 4.40208 6.01908 3.67838 5.94611 2.95603C5.87314 2.23368 5.53455 1.56417 4.99599 1.07727C4.45744 0.590381 3.75728 0.320802 3.03126 0.320802C2.30523 0.320802 1.60507 0.590381 1.06652 1.07727C0.527962 1.56417 0.189376 2.23368 0.116405 2.95603C0.0434329 3.67838 0.241273 4.40208 0.67157 4.98685C1.10187 5.57162 1.73397 5.97578 2.44532 6.12099V12.8788C1.73397 13.024 1.10187 13.4282 0.67157 14.0129C0.241273 14.5977 0.0434329 15.3214 0.116405 16.0438C0.189376 16.7661 0.527962 17.4356 1.06652 17.9225C1.60507 18.4094 2.30523 18.679 3.03126 18.679C3.75728 18.679 4.45744 18.4094 4.99599 17.9225C5.53455 17.4356 5.87314 16.7661 5.94611 16.0438C6.01908 15.3214 5.82124 14.5977 5.39094 14.0129C4.96065 13.4282 4.32855 13.024 3.61719 12.8788V11.8436C3.61719 11.3774 3.80239 10.9303 4.13205 10.6007C4.4617 10.271 4.90881 10.0858 5.37501 10.0858H12.4063C13.1833 10.0858 13.9284 9.77717 14.4779 9.22774C15.0273 8.67832 15.3359 7.93314 15.3359 7.15614V6.12099C15.9973 5.98506 16.5915 5.62526 17.0184 5.10226C17.4454 4.57925 17.6789 3.92503 17.6797 3.24989ZM1.27344 3.24989C1.27344 2.90223 1.37654 2.56237 1.56969 2.2733C1.76284 1.98423 2.03737 1.75893 2.35857 1.62588C2.67977 1.49284 3.03321 1.45803 3.37419 1.52586C3.71517 1.59368 4.02838 1.7611 4.27422 2.00693C4.52005 2.25277 4.68747 2.56598 4.75529 2.90696C4.82312 3.24794 4.78831 3.60138 4.65526 3.92258C4.52222 4.24378 4.29692 4.51831 4.00784 4.71146C3.71877 4.90461 3.37892 5.0077 3.03126 5.0077C2.56506 5.0077 2.11795 4.82251 1.7883 4.49285C1.45864 4.1632 1.27344 3.71609 1.27344 3.24989ZM4.78907 15.7499C4.78907 16.0976 4.68598 16.4374 4.49282 16.7265C4.29967 17.0156 4.02514 17.2409 3.70394 17.3739C3.38274 17.5069 3.02931 17.5418 2.68832 17.4739C2.34734 17.4061 2.03413 17.2387 1.7883 16.9929C1.54246 16.747 1.37505 16.4338 1.30722 16.0928C1.23939 15.7518 1.2742 15.3984 1.40725 15.0772C1.54029 14.756 1.7656 14.4815 2.05467 14.2883C2.34374 14.0952 2.68359 13.9921 3.03126 13.9921C3.49746 13.9921 3.94456 14.1773 4.27422 14.5069C4.60387 14.8366 4.78907 15.2837 4.78907 15.7499ZM14.75 5.0077C14.4023 5.0077 14.0625 4.90461 13.7734 4.71146C13.4843 4.51831 13.259 4.24378 13.126 3.92258C12.993 3.60138 12.9581 3.24794 13.026 2.90696C13.0938 2.56598 13.2612 2.25277 13.507 2.00693C13.7529 1.7611 14.0661 1.59368 14.4071 1.52586C14.7481 1.45803 15.1015 1.49284 15.4227 1.62588C15.7439 1.75893 16.0184 1.98423 16.2116 2.2733C16.4047 2.56237 16.5078 2.90223 16.5078 3.24989C16.5078 3.71609 16.3226 4.1632 15.993 4.49285C15.6633 4.82251 15.2162 5.0077 14.75 5.0077Z" fill="#2D60FF"/>
</svg>


    </defs>
</svg>